<svg xmlns="http://www.w3.org/2000/svg" xmlns:xlink="http://www.w3.org/1999/xlink" width="1345.545" height="500.503" viewBox="0 0 1345.545 500.503"><defs><style>.a,.b{fill:none;stroke-linecap:round;stroke-miterlimit:10;stroke-width:7.29px;}.a{stroke:#607d8b;}.b{stroke:#37474f;}.c{fill:url(#a);}.d{fill:url(#b);}.e{fill:#37474f;}.f{fill:url(#c);}.g{fill:url(#d);}.h{fill:url(#e);}.i{fill:#e0e0e0;}.j{fill:url(#f);}.k{fill:url(#g);}.l{fill:#f5b89c;}.m{fill:#f8c198;}.n{fill:#fadb5f;}.o{fill:#263238;}.p{fill:url(#h);}.q{fill:#fff;}.r{fill:url(#j);}.s{fill:tomato;}</style><linearGradient id="a" x1="0.747" y1="4.636" x2="0.768" y2="-3.364" gradientUnits="objectBoundingBox"><stop offset="0" stop-color="gray" stop-opacity="0.251"/><stop offset="0.54" stop-color="gray" stop-opacity="0.122"/><stop offset="1" stop-color="gray" stop-opacity="0.102"/></linearGradient><linearGradient id="b" x1="0.502" y1="4.793" x2="0.52" y2="-3.78" xlink:href="#a"/><linearGradient id="c" x1="0.499" y1="0.812" x2="0.499" y2="0.008" xlink:href="#a"/><linearGradient id="d" x1="0.499" y1="0.723" x2="0.499" y2="-0.054" xlink:href="#a"/><linearGradient id="e" x1="0.5" y1="0.631" x2="0.5" y2="-0.123" xlink:href="#a"/><linearGradient id="f" x1="0.499" y1="0.709" x2="0.499" y2="-0.127" xlink:href="#a"/><linearGradient id="g" x1="0.5" y1="1" x2="0.5" y2="0" xlink:href="#a"/><linearGradient id="h" x1="0.5" y1="1" x2="0.5" y2="0" xlink:href="#a"/><linearGradient id="j" x1="0.5" y1="1" x2="0.5" y2="0" xlink:href="#a"/></defs><g transform="translate(3.645 0)"><path class="a" d="M899.295,691.4c-80.174-29.333-125.7-95.936-115.388-160.28l9.527,105.7c1.453,16.139,2.666,33.136-7.764,48.025-13.36,19.023-46.292,34.484-75.249,30.477" transform="translate(385.524 -221.157)"/><path class="b" d="M897.457,697.344c-80.174-29.371-128.7-94.43-118.4-158.774l9.526,105.7c1.453,16.139,2.666,33.136-7.764,48.025-13.36,19.053-46.307,30.718-75.249,26.712" transform="translate(386.722 -222.997)"/><g transform="translate(90.61 100.549)"><rect class="c" width="208.703" height="26.125" rx="5.55" transform="translate(0 208.247) rotate(-86.21)"/></g><g transform="translate(1156.515 102.226)"><rect class="d" width="208.703" height="24.377" rx="5.55" transform="translate(0 208.247) rotate(-86.21)"/></g><path class="a" d="M159.5,690.185c80.2-29.348,125.314-98.278,115.012-162.615l-9.527,105.7c-1.453,16.139-2.666,33.136,7.764,48.025,13.36,19.023,46.292,32.978,75.249,28.971" transform="translate(-159.5 -220.281)"/><rect class="e" width="17.833" height="208.703" rx="5.55" transform="translate(108.034 106.153) rotate(3.79)"/><rect class="e" width="17.833" height="208.703" rx="5.55" transform="translate(1173.93 107.828) rotate(3.79)"/><path class="b" d="M159.85,693.784c80.174-29.37,128.7-94.43,118.4-158.774l-9.527,105.711c-1.453,16.139-2.666,33.136,7.764,48.025,13.36,19.023,46.292,30.719,75.249,26.712" transform="translate(-159.586 -222.118)"/><g transform="translate(16.054 95.614)"><path class="f" d="M1426.926,295.674l-1202.82,4.963c-25.656-.806-45.077-12.682-43.157-26.358h0c1.92-13.714,24.466-24.272,50.122-23.466l1202.82-4.933c25.656.806,45.077,12.682,43.157,26.358h0C1475.128,285.959,1452.582,296.518,1426.926,295.674Z" transform="translate(-180.817 -245.88)"/></g><g transform="translate(12.083 154.125)"><path class="g" d="M1424.2,374.611,218.864,380.29c-25.708-.813-45.131-12.931-43.184-26.938h0c1.947-14.007,24.568-24.8,50.276-23.993l1205.331-5.678c25.708.813,45.131,12.931,43.184,26.938h0C1472.524,364.588,1449.9,375.417,1424.2,374.611Z" transform="translate(-175.545 -323.68)"/></g><g transform="translate(8.135 212.328)"><path class="h" d="M1416.26,452.868l-1202.8,6.6c-25.641-.806-45-13.119-43.015-27.367h0c1.983-14.249,24.594-25.244,50.234-24.438l1202.8-6.6c25.641.806,45,13.119,43.015,27.367h0C1464.558,442.678,1441.9,453.673,1416.26,452.868Z" transform="translate(-170.302 -401.07)"/></g><g transform="translate(20.268 100.837)"><path class="i" d="M1426.847,296.635l-1196.98.166c-25.586-.837-44.949-11.262-43.362-23.346h0c1.774-12.078,23.858-21.218,49.457-20.469l1196.981-.166c25.586.837,44.949,11.262,43.362,23.346h0C1474.529,288.244,1452.446,297.384,1426.847,296.635Z" transform="translate(-186.413 -252.82)"/></g><g transform="translate(16.397 159.215)"><path class="i" d="M1421.707,374.255l-1196.981.166c-25.586-.837-44.949-11.262-43.362-23.346h0c1.774-12.078,23.858-21.218,49.457-20.469L1427.8,330.44c25.586.837,44.949,11.262,43.363,23.346h0c-1.774,12.078-23.859,21.218-49.457,20.469Z" transform="translate(-181.273 -330.44)"/></g><g transform="translate(12.526 217.549)"><path class="i" d="M1416.543,451.86l-1196.957.166c-25.586-.837-44.948-11.262-43.361-23.346h0C178,416.6,200.082,407.462,225.68,408.211L1422.685,408c25.586.838,44.948,11.262,43.362,23.346h0c-1.724,12.105-23.853,21.275-49.5,20.514Z" transform="translate(-176.133 -408)"/></g><g transform="translate(3.696 275.524)"><path class="j" d="M1402.059,548.234,220.04,553.25c-32.922-1.039-57.887-16.094-55.471-33.452h0c2.416-17.359,31.312-30.711,64.234-29.672l1182.018-5.016c32.923,1.039,57.887,16.094,55.471,33.452h0C1463.893,535.921,1434.981,549.273,1402.059,548.234Z" transform="translate(-164.408 -485.11)"/></g><path class="e" d="M1396.663,547.632,225.54,548.6c-32.727-1.067-57.484-14.412-55.4-29.867h0c2.26-15.45,30.53-27.136,63.269-26.155l1171.123-.972c32.727,1.067,57.484,14.412,55.4,29.868h0C1457.673,536.927,1429.4,548.614,1396.663,547.632Z" transform="translate(-162.096 -211.188)"/><path class="k" d="M526.623,282.92c-5.136-5.129-19.482-8.175-28.685-4.979-56.293-27.466-111.811-8.356-136.791,1.9-3.058-1.812-3.314-.113-6.74-1.241a17.49,17.49,0,0,0,2.259-9.4,18.055,18.055,0,0,0-.316-2.647c21.629-6.145,33.829-22.119,32.91-45.554-1.077-27.489-24.694-49.217-52.219-48.134s-51.963,16.245-50.9,43.734c.843,21.48,11.168,41.921,30.53,48.134-.279,1.376,3.6.128,3.66,1.6.09,2.219-3.442,6.987-2.643,8.882-24.543,1.527-31,18.374-31.366,42.741a53.517,53.517,0,0,1-1.137,10.529L279.76,353.5a48.951,48.951,0,0,0,2.191,28.105c-1.777,2.429-39.161,54.511,20.085,63.311a69.378,69.378,0,0,0,20.5.165c9.956,2.625,19.723,9.709,31.916,25.977,24.182,32.265-3.863,90.95-10.709,104.382-4.1-.692-8.472-.248-11.929,2.016-3.9,2.557-6.2,10.439-4.519,14.779,1.16,2.971,3.848,5.024,6.484,6.829a122.917,122.917,0,0,0,26.689,13.778c6.928,2.557,15.74,4.1,20.838-1.233s5.6-15.914.2-20.848a35.9,35.9,0,0,0-8.66-5.407l20.891-74.457c4.052-21.886,8.608-34.543,4.872-49.179,3.012,2.88.851,1.1,3.886,5.265,23.466,32.016-14.587,93.672-14.587,93.672l-1.581,2.316c-2.259.857-.828-.15-2.44,1.692-3.073,3.5-7.448,11.447-4.647,15.17,1.913,2.55,3.72,6.483,6.778,7.521,9.5,3.234,24.762,5.265,34.77,6.122,7.358.609,17.6-2.948,21.086-9.446s-1.1-14.824-7.629-18.133c-4.195-2.121-10.445-3.241-16.884-3.8l17.05-59.415c13.4-74.637-28.866-98.3-57.182-105.149a47.964,47.964,0,0,0,2.681-9.364h0a47.332,47.332,0,0,0,6.695-26.744l-2.681-41.455c-.233-5.941.821-6.829-1.34-12.033,42.685-23.42,99.348-9.454,106.939-7.814,1.92,3.467,6.469,5.377,10.543,6.318a70.322,70.322,0,0,0,15.981,1.767c4.933,0,10.679-1.09,12.931-5.468S530.065,286.357,526.623,282.92Z" transform="translate(-201.441 -132.101)"/><ellipse class="l" cx="14.339" cy="15.853" rx="14.339" ry="15.853" transform="translate(120.926 122.634) rotate(-2.24)"/><ellipse class="m" cx="48.205" cy="48.205" rx="48.205" ry="48.205" transform="translate(86.62 42.305) rotate(-2.24)"/><path class="m" d="M372.72,319.6s77.2-41.887,148.961-5.836l-7.471,14.5s-69.548-16.289-113.415,10.86Z" transform="translate(-227.127 -163.46)"/><path class="n" d="M342.757,445.859l-7.4.294q-1.092.045-2.169,0c-29.559-.188-51.052-28.324-44.8-57.235l5.272-24.2a51.851,51.851,0,0,0,1.1-10.2c.361-23.948,10.784-43.047,35.32-44l7.4-.294A47.761,47.761,0,0,1,386.9,355.985l1.582,40.4A47.761,47.761,0,0,1,342.757,445.859Z" transform="translate(-206.035 -166.252)"/><path class="o" d="M382.46,468.88s97.209,1.393,78.879,103.633l-25.364,85.1-18.729-20.537s35.938-68.125,13.285-99.144-46.24-22.359-46.24-22.359Z" transform="translate(-229.532 -205.789)"/><path class="o" d="M314.6,462.64s111.932,1.453,90.71,116.285l-29.3,95.6-21.538-23.044s41.458-76.537,15.408-111.344-53.221-25.055-53.221-25.055Z" transform="translate(-212.776 -204.249)"/><path class="o" d="M378.585,457.382,287.416,450.8s-39.289,52.648,19.347,61.369S378.585,457.382,378.585,457.382Z" transform="translate(-202.883 -201.074)"/><g transform="translate(79.148 0)"><path class="p" d="M401.407,122.7c-3.434-6.943-13.91-3.909-15.574,2.658-3.811,15.062-20.055,20.846-33.588,23.993-15.642,3.637-31.916,5.385-45.758,14.241-20.529,13.141-24.89,36.532-20.386,58.477a47.806,47.806,0,0,0,4.519,18.5c3.954,8.081,11.688,12.855,19.482,12.215,3.57,1.1,7.666.753,12.208-1.74,10.7-5.9,17.592-20.424,21.877-30.922,4.729-11.567,9.986-23.391,18.466-32.744,10.061-11.1,20.989-15.77,31.351-26.531C404.065,150.462,407.944,135.943,401.407,122.7Z" transform="translate(-284.49 -118.748)"/></g><path class="o" d="M399.106,128.135c-3.223-6.507-13.036-3.66-14.595,2.493-3.577,14.113-18.827,19.543-31.487,22.487-14.655,3.411-29.92,5.046-42.926,13.345-19.241,12.313-23.346,34.243-19.106,54.817a44.81,44.81,0,0,0,4.262,17.321c3.705,7.576,10.957,12.049,18.262,11.447,3.344,1.032,7.184.753,11.439-1.634,10.031-5.535,12.72-19.144,16.741-28.986,4.436-10.844,9.361-21.922,17.321-30.688,9.436-10.408,23.436-14.776,33.136-24.852C401.606,154.124,405.236,140.508,399.106,128.135Z" transform="translate(-206.572 -120.151)"/><path class="m" d="M332.9,331.32c-9.79,20.642-29.1,72.922-6.115,98.963,44.259,27.744,3.306-.128,3.306-.128l43.6,31.381a5.272,5.272,0,0,0,6.778-.527l15.529-15.34s-48.348-22.555-46.217-36.54,8.532-71.031,8.532-71.031-.655-14.55-12.411-14.949C340.9,323.036,335.038,326.8,332.9,331.32Z" transform="translate(-213.115 -169.47)"/><path class="m" d="M593.884,322.1c3.329,3.329,5.708,8.51,3.555,12.7s-7.727,5.272-12.494,5.272a67.884,67.884,0,0,1-15.446-1.71c-4.8-1.1-10.25-3.577-11.025-8.435C555.506,311.41,585.976,314.2,593.884,322.1Z" transform="translate(-273.066 -167.64)"/><path class="e" d="M432.5,690.958c-4.519.158-9.15,1.694-12.117,5.091s-3.765,8.849-1.047,12.449c1.853,2.463,4.888,3.69,7.81,4.684a118.756,118.756,0,0,0,28.429,5.9c7.117.588,15.717-.263,19.083-6.552s-1.062-14.346-7.373-17.547C458.872,690.71,441.889,690.6,432.5,690.958Z" transform="translate(-238.225 -260.591)"/><path class="e" d="M365.255,710.544c-4.383-1.062-9.271-.821-13.036,1.649s-6.025,7.531-4.353,11.711c1.122,2.869,3.72,4.865,6.266,6.6a118.757,118.757,0,0,0,25.793,13.367c6.695,2.478,15.212,3.969,20.145-1.2s2.832-14.105-2.395-18.88C390.755,717.413,374.383,712.751,365.255,710.544Z" transform="translate(-220.852 -265.311)"/><ellipse class="m" cx="16.96" cy="9.873" rx="16.96" ry="9.873" transform="translate(156.492 275.169) rotate(-2.24)"/><path class="k" d="M823.386,220.835a49.479,49.479,0,0,0-45.554-53.129c-27.269-2.106-56.482,20.931-58.56,48.135a49.47,49.47,0,0,0,32.082,50.165,17.645,17.645,0,0,0-.6,12.786c-2.575.85-2.38-.752-4.744.526-25.01-11.139-78.321-29.941-133.568-6.363-8.186-1.993-16.749,12.35-16.38,20.194.158,3.317,3.645,10.529,6.582,12.071,7.531,4.024,17.464-2.3,20.085-10.695,11.635-1.925,63.094-11.492,102.736,11.665a44.75,44.75,0,0,0-2,6.122c-1,4.031,1.672,8.273-.113,12.312l9.112,37.56c1.695,12.65-.188,23.27,4.082,32.641-1.1.128-2.8,1.158-4.014,1.339-14.459.421-26.494.8-40.17,5.347a73.663,73.663,0,0,0-41.42,35.642c-8.374,16.441-7.207,38.252,5.55,51.594a44.183,44.183,0,0,0,8.5,6.829c.136,1.143.271,2.256.437,3.46l16.8,76.9c-1.928,2.61-3.652,5.084-5.038,7.153-2.576,3.843-4.082,8.634-3.012,13.139s9.1,12.508,13.706,12.395c3.171-.06,6.025-1.858,8.593-3.693a121.947,121.947,0,0,0,22.02-20.111,39.051,39.051,0,0,0,4.579-6.506l-1.868,5.415c-2.952,3.76-5.58,7.521-7.531,10.447-2.576,3.843-4.082,8.634-3.012,13.139s9.135,11.109,13.766,11.018c3.171-.06,6.025-1.858,8.593-3.693a121.95,121.95,0,0,0,22.02-20.111c4.767-5.566,11.9-21.262,8.676-27.828-2.335-4.761-7.983-6.679-13.375-6.07-3.667-8.807-8.676-12.786-12.253-27.384,18.526,12.974,36.721,22.563,58.741,26.1-17.592-16.629-33.038-35.988-39.221-59.416-2.658-10.048-3.683-21.976,3.291-29.693,6.446-7.13,17.14-7.9,26.208-11.1a47.462,47.462,0,0,0,30.719-39.365c1.182-12.605-4.082-23.428-15.694-24.173a44.964,44.964,0,0,0,9.617-24.5l3.765-48.4A45.511,45.511,0,0,0,783.7,275.919a17.682,17.682,0,0,0,.392-10.53A49.5,49.5,0,0,0,823.386,220.835ZM718.15,559.673a16.686,16.686,0,0,0-12.667.97l-.113.068c-4.436-10.529-12.8-32.506-15.145-54.1,2.892,1.068,5.769,2.159,8.57,3.362,2.38,1.023,4.722,2.143,7.041,3.324Z" transform="translate(413.762 -130.803)"/><path class="m" d="M766.1,321.189s-75.542-44.809-148.63-11.522l6.913,14.776s70.113-13.623,112.963,15.175Z" transform="translate(408.475 -163.025)"/><path class="m" d="M772.044,471.079s-97.186-2.32-82.772,100.552l22.1,86.018,19.505-19.806s-33.317-69.442-9.5-99.581,47.053-20.552,47.053-20.552Z" transform="translate(391.106 -206.331)"/><path class="m" d="M600.116,331.646c.151,3.231,1.755,6.522,4.609,8.043,11.153,5.934,22.593-14.964,16.734-23.466C612.46,303.134,599.672,322.21,600.116,331.646Z" transform="translate(412.894 -166.593)"/><path class="q" d="M709.063,709.518c-2.508,3.765-3.976,8.412-2.96,12.8s4.978,8.216,9.489,8.133c3.08-.06,5.852-1.807,8.367-3.6a118.752,118.752,0,0,0,21.433-19.58c4.639-5.43,8.977-12.9,5.844-19.317s-12.26-7.531-18.541-4.278C724.305,688,714.289,701.716,709.063,709.518Z" transform="translate(386.67 -258.388)"/><path class="m" d="M832.972,460.068s-111.909-2.817-95.078,112.745L763.5,669.464l22.4-22.2s-38.483-78.05-11.123-111.856S828.92,512.4,828.92,512.4Z" transform="translate(379.166 -203.612)"/><path class="q" d="M803.792,448.607h0a44.319,44.319,0,0,0,47.445-40.667l3.652-47.166a44.319,44.319,0,0,0-40.667-47.445h0a44.357,44.357,0,0,0-46.307,33.445,26.418,26.418,0,0,0-.113,12l8.871,40.516C774.843,423.507,779.558,446.724,803.792,448.607Z" transform="translate(371.513 -167.001)"/><ellipse class="l" cx="15.852" cy="14.339" rx="15.852" ry="14.339" transform="translate(1166.582 157.457) rotate(-85.57)"/><path class="n" d="M763.738,471.993c-17.976-.068-36.239.8-53.3,6.477s-32.97,16.726-41.119,32.752-7.011,37.285,5.4,50.284c10.694,11.2,26.938,14.5,41.164,20.62,32.579,14,57.86,44.681,92.871,50.314a128.282,128.282,0,0,1-35.636-60.051c-2.583-9.79-3.585-21.418,3.2-28.934,6.273-6.951,16.681-7.7,25.507-10.822a46.225,46.225,0,0,0,29.9-38.362c1.288-13.736-5.272-25.3-19.52-23.406C796.151,473.009,779.922,472.053,763.738,471.993Z" transform="translate(396.957 -206.228)"/><path class="m" d="M840.2,344.325s23.632,76.363-3.54,89.038l-42.4,32.978L779.14,447.71s44.967-24.724,49.915-41.458-11.613-54.11-11.613-54.11S829.627,333.451,840.2,344.325Z" transform="translate(368.557 -173.872)"/><ellipse class="m" cx="9.459" cy="16.885" rx="9.459" ry="16.885" transform="matrix(0.08, -0.997, 0.997, 0.08, 1131.796, 290.74)"/><path class="q" d="M756.243,722.088c-2.508,3.766-3.976,8.412-2.96,12.8s4.978,8.216,9.489,8.133c3.08-.06,5.852-1.807,8.367-3.6a118.751,118.751,0,0,0,21.433-19.58c4.639-5.43,8.977-12.9,5.844-19.317s-12.26-7.531-18.541-4.278C771.485,700.564,761.469,714.286,756.243,722.088Z" transform="translate(375.021 -261.492)"/><ellipse class="m" cx="48.205" cy="48.205" rx="48.205" ry="48.205" transform="translate(1134.281 135.316) rotate(-85.57)"/><g transform="translate(1143.407 20.283)"><path class="r" d="M957.662,241.631c-5.9-5.761-12.8-10.453-18.549-16.319-5.927-6.025-9.79-13.224-13.066-20.951-6.386-15.107-10.777-31.479-22.186-43.83-14.075-15.243-32.79-16.38-52.257-13.736a423.036,423.036,0,0,0-51.052,10.265c-.474-.2-.934-.4-1.416-.587-9.429-3.547-20.522,1.838-23.9,11.229a18.143,18.143,0,0,0-.941,8.141,7.087,7.087,0,0,0,1.363,8.517c12.516,13.232,22.593,25.673,26.893,43.679,4,16.771,9.474,30.41,24.1,40.667s31.931,18.353,48.363,25.116c17.773,7.312,36.826,12.049,56.15,10.626,14.143-1.062,29.905-6.251,37.24-19.377C976.805,269.985,969.011,252.709,957.662,241.631Z" transform="translate(-773.444 -145.681)"/></g><path class="s" d="M956.018,241.856c-5.708-5.573-12.366-10.122-17.961-15.815-5.738-5.829-9.489-12.8-12.652-20.288-6.183-14.6-10.438-30.47-21.486-42.467-13.631-14.761-31.758-15.86-50.608-13.3a409.661,409.661,0,0,0-49.44,9.941c-.459-.188-.9-.392-1.371-.565-9.135-3.434-19.874,1.777-23.142,10.867a17.568,17.568,0,0,0-.911,7.885,6.912,6.912,0,0,0,1.318,8.284c12.125,12.8,21.885,24.852,26.049,42.316,3.871,16.244,9.173,29.453,23.346,39.372S860.082,285.859,876,292.4c17.208,7.079,35.659,11.7,54.373,10.287,13.691-1.032,28.964-6.025,36.066-18.767C974.552,269.313,967.006,252.587,956.018,241.856Z" transform="translate(368.933 -126.195)"/></g></svg>