<svg xmlns="http://www.w3.org/2000/svg" width="165.375" height="31.5" viewBox="0 0 165.375 31.5">
    <defs>
        <style>.la{fill:#242424;}.lb{fill:#002782;}.lc{fill:#2f71ff;}.ld{fill:#3fe2f8;}</style>
    </defs>
    <g transform="translate(37.545 9.315)">
        <path class="la" d="M50.882,9.8a.845.845,0,0,1,.586.293.718.718,0,0,1,.2.586v2.15a1.389,1.389,0,0,1-.2.586.845.845,0,0,1-.586.293H41.207v5.961H50.3a.845.845,0,0,1,.586.293.718.718,0,0,1,.2.586V22.7a1.389,1.389,0,0,1-.2.586.845.845,0,0,1-.586.293H41.207v7.036a1.389,1.389,0,0,1-.2.586.845.845,0,0,1-.586.293H37.982A.845.845,0,0,1,37.4,31.2a.718.718,0,0,1-.2-.586V10.58a1.389,1.389,0,0,1,.2-.586.845.845,0,0,1,.586-.293h12.9Z" transform="translate(-37.2 -9.407)"/>
        <path class="la" d="M61.923,15.1a9.84,9.84,0,0,1,3.03.489A7.306,7.306,0,0,1,67.3,17.055a6.757,6.757,0,0,1,1.564,2.15,7.5,7.5,0,0,1,.684,2.639v3.127a7.5,7.5,0,0,1-.684,2.639,6.757,6.757,0,0,1-1.564,2.15,9.515,9.515,0,0,1-2.345,1.466,7.6,7.6,0,0,1-3.03.489,9.84,9.84,0,0,1-3.03-.489,7.306,7.306,0,0,1-2.346-1.466,5.827,5.827,0,0,1-1.564-2.15,7.5,7.5,0,0,1-.684-2.639V21.843a7.5,7.5,0,0,1,.684-2.639,6.758,6.758,0,0,1,1.564-2.15,9.516,9.516,0,0,1,2.346-1.466A10.347,10.347,0,0,1,61.923,15.1Zm3.714,6.841a3.687,3.687,0,0,0-.489-1.564,2.139,2.139,0,0,0-.88-.977,2.639,2.639,0,0,0-1.075-.489,5.163,5.163,0,0,0-1.27-.1,5.572,5.572,0,0,0-1.27.1,3.613,3.613,0,0,0-1.075.489,4.2,4.2,0,0,0-.88.977,5.9,5.9,0,0,0-.489,1.564v2.736a3.687,3.687,0,0,0,.489,1.564,2.139,2.139,0,0,0,.88.977,2.639,2.639,0,0,0,1.075.489,5.163,5.163,0,0,0,1.27.1,5.572,5.572,0,0,0,1.27-.1,3.613,3.613,0,0,0,1.075-.489,4.2,4.2,0,0,0,.88-.977,5.9,5.9,0,0,0,.489-1.564V21.941Z" transform="translate(-37.588 -9.529)"/>
        <path class="la" d="M80.83,19.114a4.045,4.045,0,0,0-2.639.782,4.044,4.044,0,0,0-.782,2.639V30.45a1.389,1.389,0,0,1-.2.586.845.845,0,0,1-.586.293H74.282a.845.845,0,0,1-.586-.293.718.718,0,0,1-.2-.586V16.28a1.389,1.389,0,0,1,.2-.586.845.845,0,0,1,.586-.293h2.345a.845.845,0,0,1,.586.293.718.718,0,0,1,.2.586v.684a6.42,6.42,0,0,1,1.661-1.173,5.34,5.34,0,0,1,2.345-.391h1.368a.845.845,0,0,1,.586.293.718.718,0,0,1,.2.586v2.052a1.389,1.389,0,0,1-.2.586.845.845,0,0,1-.586.293H80.83Z" transform="translate(-38.024 -9.536)"/>
        <path class="la" d="M90.411,16.957a4.776,4.776,0,0,1,1.759-1.368,5.326,5.326,0,0,1,2.15-.489A5.485,5.485,0,0,1,99.4,17.641a5.122,5.122,0,0,1,.977-1.075,5.541,5.541,0,0,1,1.27-.782,5.651,5.651,0,0,1,1.368-.489,6.6,6.6,0,0,1,1.368-.2,5.825,5.825,0,0,1,2.834.586,4.832,4.832,0,0,1,1.857,1.564,5.837,5.837,0,0,1,.977,2.248,12.363,12.363,0,0,1,.293,2.736v8.209a1.389,1.389,0,0,1-.2.586.845.845,0,0,1-.586.293h-2.345a.845.845,0,0,1-.586-.293.718.718,0,0,1-.2-.586V22.332a4.578,4.578,0,0,0-.782-2.932,2.76,2.76,0,0,0-2.248-.782,3.154,3.154,0,0,0-2.052.782,3.534,3.534,0,0,0-.88,2.736v8.209a1.389,1.389,0,0,1-.2.586.845.845,0,0,1-.586.293H97.35a.845.845,0,0,1-.586-.293.718.718,0,0,1-.2-.586V22.234a4.578,4.578,0,0,0-.782-2.932,2.76,2.76,0,0,0-2.248-.782,3.032,3.032,0,0,0-2.15.88,4.045,4.045,0,0,0-.88,2.932v8.112a1.389,1.389,0,0,1-.2.586.845.845,0,0,1-.586.293H87.382a.845.845,0,0,1-.586-.293.718.718,0,0,1-.2-.586V16.273a1.389,1.389,0,0,1,.2-.586.845.845,0,0,1,.586-.293h2.346a.845.845,0,0,1,.586.293.718.718,0,0,1,.2.586v.684Z" transform="translate(-38.322 -9.529)"/>
        <path class="la" d="M118.221,9.5a.845.845,0,0,1,.586.293.718.718,0,0,1,.2.586v2.345a1.389,1.389,0,0,1-.2.586.845.845,0,0,1-.586.293h-2.639a.845.845,0,0,1-.586-.293.718.718,0,0,1-.2-.586V10.38a1.389,1.389,0,0,1,.2-.586.845.845,0,0,1,.586-.293h2.639Zm.684,20.816a1.389,1.389,0,0,1-.2.586.845.845,0,0,1-.586.293h-2.346a.845.845,0,0,1-.586-.293.718.718,0,0,1-.2-.586V16.146a1.389,1.389,0,0,1,.2-.586.845.845,0,0,1,.586-.293h2.346a.845.845,0,0,1,.586.293.718.718,0,0,1,.2.586Z" transform="translate(-38.962 -9.402)"/>
        <path class="la" d="M131.882,26.732a1.389,1.389,0,0,0-.2-.586,1.871,1.871,0,0,0-.782-.391,12.459,12.459,0,0,0-1.368-.391c-.586-.1-1.368-.293-2.248-.489a9.986,9.986,0,0,1-2.248-.782,3.94,3.94,0,0,1-1.368-1.075,3.835,3.835,0,0,1-.782-1.368,8.608,8.608,0,0,1-.2-1.661,3.833,3.833,0,0,1,.391-1.759,4.726,4.726,0,0,1,1.27-1.564,4.234,4.234,0,0,1,1.955-1.075,7.49,7.49,0,0,1,2.639-.391,10.9,10.9,0,0,1,2.639.293,5.164,5.164,0,0,1,1.955.88,5.225,5.225,0,0,1,1.27,1.27,2.908,2.908,0,0,1,.489,1.466,1.389,1.389,0,0,1-.2.586.845.845,0,0,1-.586.293h-2.346a1.413,1.413,0,0,1-.684-.2A1.715,1.715,0,0,1,131,19.4a4.249,4.249,0,0,0-.684-.391,4.53,4.53,0,0,0-1.368-.2,3.722,3.722,0,0,0-1.564.293.941.941,0,0,0-.684.977,1.389,1.389,0,0,0,.2.586c.1.2.293.293.684.391a10.143,10.143,0,0,0,1.27.391c.586.1,1.27.293,2.15.489a6.98,6.98,0,0,1,3.811,1.857,4.131,4.131,0,0,1,1.075,3.03,3.982,3.982,0,0,1-.489,1.759,6.381,6.381,0,0,1-1.27,1.564,6.335,6.335,0,0,1-2.15,1.075,8.649,8.649,0,0,1-2.834.391,8.282,8.282,0,0,1-2.834-.391,10.011,10.011,0,0,1-2.052-.977,4.172,4.172,0,0,1-1.27-1.368,2.908,2.908,0,0,1-.489-1.466,1.389,1.389,0,0,1,.2-.586.845.845,0,0,1,.586-.293h2.346a1.412,1.412,0,0,1,.684.2c.2.1.293.293.489.489a2.128,2.128,0,0,0,.782.489,6.124,6.124,0,0,0,1.564.2,3.666,3.666,0,0,0,.977-.1,2.854,2.854,0,0,0,.88-.2,1.575,1.575,0,0,0,.684-.391A.574.574,0,0,0,131.882,26.732Z" transform="translate(-39.137 -9.532)"/>
        <path class="la" d="M144.743,25.428a2.2,2.2,0,0,0,.489,1.466,2.343,2.343,0,0,0,1.857.586h1.857a.845.845,0,0,1,.586.293.718.718,0,0,1,.2.586v2.052a1.389,1.389,0,0,1-.2.586.845.845,0,0,1-.586.293H146.7a6.758,6.758,0,0,1-4.4-1.368,5.607,5.607,0,0,1-1.564-4.3V19.075h-1.955a.845.845,0,0,1-.586-.293.718.718,0,0,1-.2-.586V16.143a1.389,1.389,0,0,1,.2-.586.845.845,0,0,1,.586-.293h1.955V10.28a1.389,1.389,0,0,1,.2-.586.845.845,0,0,1,.586-.293h2.345a.845.845,0,0,1,.586.293.718.718,0,0,1,.2.586v4.984h3.909a.845.845,0,0,1,.586.293.718.718,0,0,1,.2.586V18.2a1.389,1.389,0,0,1-.2.586.845.845,0,0,1-.586.293h-3.909v6.352Z" transform="translate(-39.489 -9.4)"/>
        <path class="la" d="M160.023,15.1a9.84,9.84,0,0,1,3.03.489,7.306,7.306,0,0,1,2.346,1.466,6.758,6.758,0,0,1,1.564,2.15,7.5,7.5,0,0,1,.684,2.639v3.127a7.5,7.5,0,0,1-.684,2.639,6.757,6.757,0,0,1-1.564,2.15,9.516,9.516,0,0,1-2.346,1.466,7.6,7.6,0,0,1-3.03.489,9.84,9.84,0,0,1-3.03-.489,7.306,7.306,0,0,1-2.346-1.466,5.827,5.827,0,0,1-1.564-2.15,7.5,7.5,0,0,1-.684-2.639V21.843a7.5,7.5,0,0,1,.684-2.639,6.757,6.757,0,0,1,1.564-2.15,9.516,9.516,0,0,1,2.346-1.466A9.369,9.369,0,0,1,160.023,15.1Zm3.616,6.841a3.687,3.687,0,0,0-.489-1.564,2.139,2.139,0,0,0-.88-.977,2.639,2.639,0,0,0-1.075-.489,8.307,8.307,0,0,0-2.541,0,3.613,3.613,0,0,0-1.075.489,4.2,4.2,0,0,0-.88.977,5.9,5.9,0,0,0-.489,1.564v2.736a3.687,3.687,0,0,0,.489,1.564,2.139,2.139,0,0,0,.88.977,2.639,2.639,0,0,0,1.075.489,8.307,8.307,0,0,0,2.541,0,3.613,3.613,0,0,0,1.075-.489,4.2,4.2,0,0,0,.88-.977,5.9,5.9,0,0,0,.489-1.564v-2.15A.623.623,0,0,0,163.639,21.941Z" transform="translate(-39.816 -9.529)"/>
    </g>
    <path class="lb" d="M21.6,11.434H0v-.1A11.345,11.345,0,0,1,11.337,0h21.6V.1A11.345,11.345,0,0,1,21.6,11.434Z"/>
    <path class="lc" d="M10.262,23.111H0V11.7H21.6v.1A11.361,11.361,0,0,1,10.262,23.111Z" transform="translate(0 -0.266)"/>
    <path class="ld" d="M3.03,31.857H.1c-.1,0-.1,0-.1-.1V23.4a.1.1,0,0,1,.1-.1H8.4v3.148A5.44,5.44,0,0,1,3.03,31.857Z" transform="translate(0 -0.455)"/>
</svg>